HIERARCHY
ROOT Hips
{
	OFFSET 0.000000 0.000000 0.000000 
	CHANNELS 6 Xposition Yposition Zposition Zrotation Yrotation Xrotation
	JOINT LeftUpLeg
	{
		OFFSET 1.363060 -1.794630 0.839290 
		CHANNELS 3 Zrotation Yrotation Xrotation
		JOINT LeftLeg
		{
			OFFSET 2.448110 -6.726130 0.000000 
			CHANNELS 3 Zrotation Yrotation Xrotation
			JOINT LeftFoot
			{
				OFFSET 2.562200 -7.039590 0.000000 
				CHANNELS 3 Zrotation Yrotation Xrotation
				JOINT LeftToeBase
				{
					OFFSET 0.157640 -0.433110 2.322550 
					CHANNELS 3 Zrotation Yrotation Xrotation
					End Site
					{
						OFFSET 0.000000 0.000000 0.000000 
					}
				}
			}
		}
	}
	JOINT RightUpLeg
	{
		OFFSET -1.305520 -1.794630 0.839290 
		CHANNELS 3 Zrotation Yrotation Xrotation
		JOINT RightLeg
		{
			OFFSET -2.542530 -6.985550 0.000000 
			CHANNELS 3 Zrotation Yrotation Xrotation
			JOINT RightFoot
			{
				OFFSET -2.568260 -7.056230 0.000000 
				CHANNELS 3 Zrotation Yrotation Xrotation
				JOINT RightToeBase
				{
					OFFSET -0.164730 -0.452590 2.363150 
					CHANNELS 3 Zrotation Yrotation Xrotation
					End Site
					{
						OFFSET 0.000000 0.000000 0.000000 
					}
				}
			}
		}
	}
	JOINT Spine
	{
		OFFSET 0.028270 2.035590 -0.193380 
		CHANNELS 3 Zrotation Yrotation Xrotation
		JOINT Spine1
		{
			OFFSET 0.056720 2.048850 -0.042750 
			CHANNELS 3 Zrotation Yrotation Xrotation
			JOINT Neck1
			{
				OFFSET -0.054170 1.746240 0.172020 
				CHANNELS 3 Zrotation Yrotation Xrotation
				JOINT Head
				{
					OFFSET 0.104070 1.761360 -0.123970 
					CHANNELS 3 Zrotation Yrotation Xrotation
					End Site
					{
						OFFSET 0.000000 0.000000 0.000000 
					}
				}
			}
			JOINT LeftArm
			{
				OFFSET 3.362410 1.200890 -0.311210 
				CHANNELS 3 Zrotation Yrotation Xrotation
				JOINT LeftForeArm
				{
					OFFSET 4.983000 -0.000000 -0.000000 
					CHANNELS 3 Zrotation Yrotation Xrotation
					JOINT LeftHand
					{
						OFFSET 3.483560 -0.000000 -0.000000 
						CHANNELS 3 Zrotation Yrotation Xrotation
						JOINT LeftHandIndex1
						{
							OFFSET 0.715260 -0.000000 -0.000000 
							CHANNELS 3 Zrotation Yrotation Xrotation
							End Site
							{
								OFFSET 0.000000 0.000000 0.000000 
							}
						}
					}
				}
			}
			JOINT RightArm
			{
				OFFSET -3.136600 1.374050 -0.404650 
				CHANNELS 3 Zrotation Yrotation Xrotation
				JOINT RightForeArm
				{
					OFFSET -5.241900 -0.000000 -0.000000 
					CHANNELS 3 Zrotation Yrotation Xrotation
					JOINT RightHand
					{
						OFFSET -3.444170 -0.000000 -0.000000 
						CHANNELS 3 Zrotation Yrotation Xrotation
						JOINT RightHandIndex1
						{
							OFFSET -0.622530 -0.000000 -0.000000 
							CHANNELS 3 Zrotation Yrotation Xrotation
							End Site
							{
								OFFSET 0.000000 0.000000 0.000000 
							}
						}
					}
				}
			}
		}
	}
}
MOTION
Frames: 13
Frame Time: 0.041667
8.982011 18.051521 -5.176046 -63.378955 81.367271 -46.568090 -19.554000 4.176847 -40.747374 -0.399925 7.155815 17.424639 2.724949 3.530283 30.571305 0.008700 -0.601400 -1.652700 30.430894 12.227966 -9.001160 -3.008700 -12.316369 34.358675 1.204339 -9.785354 8.281757 -0.030700 1.131900 -3.111700 1.267946 -0.180216 0.378551 -3.427213 0.179259 -3.512889 5.902814 3.261821 -7.471218 -0.075900 1.041500 -6.218500 -78.051646 3.048630 21.592021 12.144098 -22.499381 -3.502114 -1.126450 -0.983991 -22.641431 -7.125000 0.000000 0.000000 78.339262 -1.120196 29.526056 -13.443809 24.586240 -3.738194 1.147433 -0.163314 1.904264 7.125000 0.000000 0.000000 
8.837422 18.043144 -5.163946 -62.909350 81.070535 -46.267826 -19.083876 3.969472 -40.788797 -0.407019 7.070854 17.123149 2.690569 4.348770 30.871488 0.005300 -0.468200 -1.286600 30.845536 12.007456 -8.879445 -2.880722 -12.154597 33.861752 1.163181 -9.335965 7.597275 -0.067500 1.675900 -4.610800 1.274906 -0.071587 0.387958 -3.456680 0.234228 -3.495678 5.912686 3.266018 -7.474812 -0.071400 1.042100 -6.232300 -78.142898 3.123643 21.619976 12.204984 -22.572046 -3.524549 -1.121583 -0.988100 -22.761660 -7.125000 0.000000 0.000000 78.393012 -1.126636 29.631678 -13.470039 24.618032 -3.745565 1.146252 -0.162806 1.911289 7.125000 0.000000 0.000000 
8.687662 18.026285 -5.151845 -62.388200 80.761112 -45.917705 -18.585370 3.758256 -40.836873 -0.416307 6.971724 16.770991 2.660302 5.280360 31.272373 0.003200 -0.362900 -0.997000 31.267172 11.688314 -8.912449 -2.803189 -12.060417 33.581205 1.129542 -8.927230 6.836931 -0.112900 2.166400 -5.965600 1.281420 0.044278 0.399490 -3.487350 0.293816 -3.483158 5.916448 3.269617 -7.496797 -0.070200 1.041400 -6.256200 -78.238555 3.187561 21.651339 12.264673 -22.642105 -3.546588 -1.118213 -0.990974 -22.879697 -7.125000 0.000000 0.000000 78.446910 -1.113884 29.723544 -13.495797 24.647814 -3.753185 1.146202 -0.161227 1.910067 7.125000 0.000000 0.000000 
8.533764 18.011599 -5.140054 -61.743819 80.447324 -45.446276 -18.067131 3.549232 -40.851671 -0.430122 6.846763 16.336073 2.631548 6.344704 31.768671 0.001800 -0.273200 -0.750600 31.661446 11.327111 -9.055990 -2.752514 -12.003296 33.414419 1.098641 -8.554501 6.067740 -0.155000 2.536600 -6.991100 1.285927 0.166106 0.414265 -3.516495 0.357385 -3.473743 5.918592 3.278494 -7.541224 -0.069100 1.042400 -6.293400 -78.338236 3.236423 21.680656 12.320900 -22.706975 -3.567631 -1.117097 -0.993189 -22.990143 -7.125000 0.000000 0.000000 78.501629 -1.077303 29.804221 -13.518762 24.672864 -3.760203 1.147410 -0.159142 1.895445 7.125000 0.000000 0.000000 
8.376143 18.000118 -5.128367 -61.003219 80.132601 -44.882239 -17.515272 3.318481 -40.844674 -0.440251 6.715941 15.867981 2.592839 7.567437 32.316361 0.000700 -0.176400 -0.484500 32.020519 10.998602 -9.285479 -2.720366 -11.974314 33.328611 1.064678 -8.203008 5.352061 -0.191800 2.820200 -7.778500 1.288737 0.291525 0.432049 -3.543999 0.423431 -3.469155 5.918363 3.288538 -7.601807 -0.069600 1.043000 -6.340200 -78.441394 3.268989 21.699505 12.366677 -22.758565 -3.585069 -1.118165 -0.994633 -23.090887 -7.125000 0.000000 0.000000 78.558398 -1.020042 29.877611 -13.535814 24.689629 -3.765500 1.149472 -0.159374 1.881135 7.125000 0.000000 0.000000 
8.215109 17.992775 -5.116783 -60.228015 79.831679 -44.291963 -16.932403 3.063511 -40.757436 -0.454409 6.549572 15.282004 2.541064 9.001576 32.931144 0.000100 -0.051000 -0.140100 32.334719 10.735593 -9.552936 -2.692391 -11.951626 33.253309 1.033654 -7.913622 4.760575 -0.209700 2.948400 -8.135200 1.289919 0.413113 0.453757 -3.566360 0.488469 -3.467973 5.921595 3.302439 -7.676790 -0.067700 1.044800 -6.396100 -78.545302 3.285498 21.716087 12.406823 -22.802665 -3.600740 -1.121084 -0.996268 -23.183366 -7.125000 0.000000 0.000000 78.614897 -0.944108 29.952566 -13.546513 24.697864 -3.768678 1.151961 -0.162010 1.873434 7.125000 0.000000 0.000000 
8.051593 17.989983 -5.104889 -59.441039 79.541649 -43.696921 -16.304316 2.770617 -40.570943 -0.469287 6.345446 14.564470 2.454922 10.722189 33.562003 0.000600 0.157800 0.433500 32.611540 10.556169 -9.843117 -2.668329 -11.934854 33.187115 1.008727 -7.693714 4.289944 -0.213700 2.975800 -8.211300 1.289903 0.531863 0.478639 -3.584225 0.552944 -3.469346 5.928124 3.314895 -7.755517 -0.064000 1.045500 -6.455300 -78.649622 3.287224 21.733895 12.439069 -22.836793 -3.613393 -1.124908 -0.998088 -23.275928 -7.125000 0.000000 0.000000 78.668182 -0.856122 30.037385 -13.554292 24.701667 -3.770668 1.154350 -0.166837 1.869814 7.125000 0.000000 0.000000 
7.885595 17.991224 -5.092478 -58.766106 79.272986 -43.203081 -15.627647 2.419644 -40.298257 -0.484695 6.102895 13.710612 2.325249 12.731026 34.176820 0.005000 0.456700 1.254800 32.862528 10.435686 -10.184676 -2.652246 -11.930599 33.151024 0.991828 -7.548139 3.939432 -0.208800 2.942200 -8.117800 1.289498 0.637484 0.504491 -3.602538 0.611410 -3.470391 5.939570 3.326371 -7.830041 -0.058600 1.045600 -6.513600 -78.749334 3.277431 21.752885 12.467796 -22.866344 -3.624854 -1.129166 -1.000865 -23.364296 -7.125000 0.000000 0.000000 78.721056 -0.760711 30.145032 -13.569083 24.713185 -3.774862 1.156800 -0.171059 1.865891 7.125000 0.000000 0.000000 
7.718148 17.995257 -5.079654 -58.230790 79.014372 -42.828633 -14.885711 1.999572 -39.948314 -0.498694 5.826976 12.737728 2.138384 14.996900 34.713657 0.016700 0.835000 2.294800 33.105302 10.350739 -10.597826 -2.648313 -11.945984 33.166634 0.979487 -7.455459 3.716591 -0.205400 2.918300 -8.051400 1.288950 0.733638 0.530343 -3.629482 0.665572 -3.467508 5.955363 3.334977 -7.895233 -0.050900 1.044300 -6.569000 -78.842835 3.257074 21.771930 12.493203 -22.890658 -3.634175 -1.132599 -1.001500 -23.439229 -7.125000 0.000000 0.000000 78.770874 -0.664182 30.282550 -13.590704 24.733363 -3.780918 1.158083 -0.176030 1.868604 7.125000 0.000000 0.000000 
7.550185 18.000118 -5.066415 -57.861274 78.757356 -42.590843 -14.073084 1.508075 -39.550154 -0.512480 5.528338 11.687982 1.904984 17.386196 35.155068 0.036800 1.238500 3.405400 33.357205 10.289616 -11.092586 -2.658482 -11.984723 33.246706 0.970960 -7.402540 3.584700 -0.203300 2.903600 -8.010400 1.289198 0.822156 0.556279 -3.667956 0.716186 -3.451598 5.974460 3.340166 -7.944678 -0.041100 1.042200 -6.616900 -78.931095 3.222944 21.784170 12.515759 -22.910329 -3.642085 -1.134966 -1.003501 -23.486847 -7.125000 0.000000 0.000000 78.813252 -0.569764 30.451004 -13.628141 24.773246 -3.792022 1.157405 -0.180795 1.874975 7.125000 0.000000 0.000000 
7.382428 18.004255 -5.053177 -57.660873 78.495165 -42.483468 -13.167832 0.915532 -39.128189 -0.524890 5.226832 10.630534 1.640459 19.758343 35.489843 0.064200 1.635100 4.498300 33.627649 10.252436 -11.668008 -2.681201 -12.045076 33.385863 0.963443 -7.368839 3.518084 -0.199400 2.875700 -7.932900 1.290335 0.904870 0.581740 -3.723076 0.764304 -3.417731 5.997414 3.343889 -7.977628 -0.028400 1.040400 -6.657600 -79.015436 3.185809 21.791851 12.543263 -22.934438 -3.650851 -1.134960 -1.003596 -23.508722 -7.125000 0.000000 0.000000 78.846800 -0.483710 30.653184 -13.686116 24.839215 -3.809926 1.154366 -0.184385 1.885453 7.125000 0.000000 0.000000 
7.216120 18.007048 -5.040352 -57.576957 78.222916 -42.454424 -12.171179 0.219702 -38.707179 -0.534028 4.945310 9.643943 1.369392 21.961318 35.726210 0.098100 2.019600 5.559800 33.913252 10.245392 -12.304902 -2.712861 -12.121793 33.569210 0.953106 -7.332849 3.509936 -0.196700 2.856200 -7.878500 1.292580 0.985197 0.607848 -3.793222 0.811449 -3.358160 6.018362 3.344065 -7.993021 -0.016000 1.037900 -6.689400 -79.101485 3.145841 21.796802 12.576063 -22.963992 -3.660758 -1.132430 -1.002923 -23.519239 -7.125000 0.000000 0.000000 78.865484 -0.408836 30.886154 -13.771845 24.939802 -3.837643 1.149486 -0.184598 1.886534 7.125000 0.000000 0.000000 
7.052086 18.007875 -5.028251 -57.579278 77.941264 -42.479306 -11.103612 -0.563411 -38.321361 -0.537670 4.708741 8.807625 1.121623 23.868116 35.896294 0.136800 2.383600 6.566900 34.210057 10.277299 -12.976154 -2.749302 -12.208388 33.778089 0.938519 -7.282550 3.541505 -0.192800 2.827700 -7.799400 1.296731 1.063177 0.634199 -3.870488 0.857686 -3.275841 6.038779 3.343005 -7.990028 -0.002200 1.036500 -6.712100 -79.199734 3.113395 21.789420 12.612603 -22.997749 -3.671695 -1.127977 -1.002240 -23.530784 -7.125000 0.000000 0.000000 78.866063 -0.351211 31.137968 -13.882576 25.071591 -3.874554 1.142955 -0.182845 1.874333 7.125000 0.000000 0.000000 
